HIERARCHY
ROOT Hips
{
  OFFSET 3.13124 94.3669 -3.18751
  CHANNELS  6 Xposition Yposition Zposition Zrotation Xrotation Yrotation
  JOINT LeftUpLeg
  {
    OFFSET 8.64259 1.95398 -2.38835
    CHANNELS 3 Zrotation Xrotation Yrotation
    JOINT LeftLeg
    {
      OFFSET 43.7702 0 0
      CHANNELS 3 Zrotation Xrotation Yrotation
      JOINT LeftFoot
      {
        OFFSET 40.6238 0 0
        CHANNELS 3 Zrotation Xrotation Yrotation
        JOINT LeftToeBase
        {
          OFFSET 12.7242 0 0
          CHANNELS 3 Zrotation Xrotation Yrotation
          End Site
          {
            OFFSET 0 0 0
          }
        }
      }
    }
  }
  JOINT RightUpLeg
  {
    OFFSET -8.2249 1.95398 -2.59336
    CHANNELS 3 Zrotation Xrotation Yrotation
    JOINT RightLeg
    {
      OFFSET 43.5653 0 0
      CHANNELS 3 Zrotation Xrotation Yrotation
      JOINT RightFoot
      {
        OFFSET 40.6238 0 0
        CHANNELS 3 Zrotation Xrotation Yrotation
        JOINT RightToeBase
        {
          OFFSET 12.7242 0 0
          CHANNELS 3 Zrotation Xrotation Yrotation
          End Site
          {
            OFFSET 0 0 0
          }
        }
      }
    }
  }
  JOINT Spine
  {
    OFFSET 0.165834 0.87714 6.61349
    CHANNELS 3 Zrotation Xrotation Yrotation
    JOINT Spine1
    {
      OFFSET 7.38962 1.71661e-005 0
      CHANNELS 3 Zrotation Xrotation Yrotation
      JOINT Spine2
      {
        OFFSET 11.9445 1.14441e-005 0
        CHANNELS 3 Zrotation Xrotation Yrotation
        JOINT Spine3
        {
          OFFSET 14.7254 4.19617e-005 0
          CHANNELS 3 Zrotation Xrotation Yrotation
          JOINT Spine4
          {
            OFFSET 10.9679 0 0
            CHANNELS 3 Zrotation Xrotation Yrotation
            JOINT RightShoulder
            {
              OFFSET 2.46616 -1.6653 3.69651
              CHANNELS 3 Zrotation Xrotation Yrotation
              JOINT RightArm
              {
                OFFSET 13.0012 0 0
                CHANNELS 3 Zrotation Xrotation Yrotation
                JOINT RightForeArm
                {
                  OFFSET 28.7848 1.52588e-005 0
                  CHANNELS 3 Zrotation Xrotation Yrotation
                  JOINT RightHand
                  {
                    OFFSET 26.5688 1.52588e-005 0
                    CHANNELS 3 Zrotation Xrotation Yrotation
                    End Site
                    {
                      OFFSET 0 0 0
                    }
                  }
                }
              }
            }
            JOINT LeftShoulder
            {
              OFFSET 2.38034 -1.29275 -3.75231
              CHANNELS 3 Zrotation Xrotation Yrotation
              JOINT LeftArm
              {
                OFFSET 16.3182 6.10352e-005 0
                CHANNELS 3 Zrotation Xrotation Yrotation
                JOINT LeftForeArm
                {
                  OFFSET 27.0901 0 0
                  CHANNELS 3 Zrotation Xrotation Yrotation
                  JOINT LeftHand
                  {
                    OFFSET 24.5451 1.52588e-005 0
                    CHANNELS 3 Zrotation Xrotation Yrotation
                    End Site
                    {
                      OFFSET 0 0 0
                    }
                  }
                }
              }
            }
            JOINT Neck
            {
              OFFSET 5.0226 -0.0266342 0
              CHANNELS 3 Zrotation Xrotation Yrotation
              JOINT Head
              {
                OFFSET 6.69363 2.86102e-005 0
                CHANNELS 3 Zrotation Xrotation Yrotation
                End Site
                {
                  OFFSET 0 0 0
                }
              }
            }
          }
        }
      }
    }
  }
}
MOTION
Frames:	10
Frame Time:	0.0333333
50.5599 83.3324 27.2347 -109.514 -71.3339 -121.189 -173.955 20.8364 101.054 -10.7048 18.6439 2.73569 34.7442 -19.4711 -19.7141 28.7808 7.42236e-006 8.08035e-006 -179.949 9.68319 63.7715 -62.6042 54.2356 4.89337 89.1954 25.9674 7.32779 28.7808 1.3476e-005 3.02633e-005 3.10696 5.39264 -95.5938 15.8468 3.14954 -5.63971 4.16685 2.8987 -5.77232 -18.3325 4.69734 -4.43538 1.68019 4.69736 -4.43542 88.0814 -21.522 -114.769 11.6416 15.3758 -96.1218 4.33878 -5.59992 -53.2928 -5.37983 -0.319993 -0.0162392 -75.9232 -20.1511 101.285 13.8315 -42.4399 -42.322 65.2828 32.9541 -72.3392 -8.97425 0.746588 -18.8048 33.7625 16.7552 -9.73624 -21.621 16.7994 20.0579 
51.6581 84.3039 28.2313 -109.887 -73.3035 -121.017 -174.59 22.4852 99.7582 -15.1288 14.4194 2.24935 41.3803 -17.3583 -15.661 28.7808 7.42236e-006 8.08035e-006 179.088 7.86414 64.1403 -59.2836 55.332 5.19549 85.8966 25.9798 8.24217 28.7808 1.3476e-005 3.02633e-005 2.89376 5.34429 -94.9776 16.0175 3.14037 -5.75271 4.33703 2.8846 -5.8848 -18.1589 4.72247 -4.54615 1.85378 4.72247 -4.54615 88.2416 -22.7447 -113.736 9.88309 19.1695 -93.238 2.65668 -5.34413 -60.2777 -5.37983 -0.319993 -0.0162392 -76.0097 -18.8105 101.175 20.4403 -44.2333 -32.7179 69.7512 25.0725 -75.5997 -7.71568 0.591399 -18.9553 27.2698 16.5009 -4.70507 -16.2939 15.759 15.1658 
52.8302 85.3583 29.5015 -110.972 -75.0923 -121.013 -174.833 24.0021 98.763 -18.4782 12.1418 1.82061 46.1667 -13.3771 -11.1634 28.7808 7.42236e-006 8.08035e-006 177.755 5.31802 64.8823 -55.0559 56.5635 5.60034 82.3363 25.5248 9.06935 28.7808 1.3476e-005 3.02633e-005 2.82902 5.32845 -94.5705 16.0973 3.24367 -5.8916 4.41648 2.98172 -6.02807 -18.0783 4.86262 -4.64781 1.93437 4.86261 -4.64782 88.303 -24.3245 -112.771 7.55624 22.1259 -89.399 1.00978 -4.87336 -67.5299 -5.37983 -0.319993 -0.0162392 -75.8099 -16.6054 101.809 23.6056 -45.8604 -24.8002 69.6547 18.2818 -76.2751 -0.64709 -0.330837 -20.2359 22.2404 15.4689 -1.18472 -13.9375 14.1021 12.205 
54.2359 86.2612 31.0894 -112.581 -77.128 -121.312 -175.515 25.681 97.9962 -21.4695 12.074 1.99354 48.2794 -11.0605 -8.95411 28.7808 7.42236e-006 8.08035e-006 176.432 2.68492 65.5557 -51.1735 57.3544 5.99133 77.4929 25.186 10.2766 28.7808 1.3476e-005 3.02633e-005 2.89397 5.31303 -94.4941 16.138 3.41877 -5.93866 4.45729 3.15458 -6.08277 -18.041 5.04374 -4.64005 1.97162 5.04375 -4.64006 88.7307 -26.4807 -110.817 6.60645 23.4999 -86.8678 -0.325085 -4.31549 -73.9495 -5.37983 -0.319993 -0.0162392 -76.326 -16.931 100.531 31.6191 -48.2795 -12.214 64.6491 11.0274 -76.9404 4.94408 -1.20073 -21.604 19.0732 13.6214 0.662927 -14.0982 11.8486 11.3611 
55.8494 86.972 32.8451 -112.461 -79.2593 -119.946 -176.323 27.7167 97.3987 -24.3732 12.6996 2.45171 49.2138 -9.24611 -7.43746 28.7808 7.42236e-006 8.08035e-006 175.535 0.927067 65.908 -48.2727 57.5179 6.21582 71.0044 24.7681 11.9257 28.7808 1.3476e-005 3.02633e-005 3.0339 5.26947 -94.4578 16.2235 3.68734 -5.88137 4.54378 3.42541 -6.03733 -17.9642 5.28277 -4.50435 2.04849 5.28277 -4.50434 89.0897 -27.9327 -109.428 8.11462 23.4586 -85.5021 -0.915672 -3.85354 -77.2571 -5.37983 -0.319993 -0.0162392 -76.2104 -15.3863 100.908 34.212 -50.1524 -2.52958 63.7071 4.94138 -79.2122 9.70459 -2.05965 -22.8481 15.6893 11.4662 2.37814 -14.3817 9.46082 10.0549 
57.6092 87.4388 34.6288 -111.867 -81.8756 -117.987 -177.436 30.0592 96.7873 -27.449 12.7334 3.16211 50.9563 -8.12193 -6.35692 28.7808 7.42236e-006 8.08035e-006 174.887 -0.501649 66.5315 -46.0087 58.1978 6.5981 64.5763 23.4704 13.0914 28.7808 1.3476e-005 3.02633e-005 3.20394 5.2268 -94.4587 16.302 3.97908 -5.82171 4.62336 3.71948 -5.99056 -17.8953 5.54317 -4.35931 2.11731 5.54317 -4.35932 89.2055 -28.2305 -109.066 7.55886 24.6541 -81.6852 -1.60659 -3.37918 -81.5178 -5.37983 -0.319993 -0.0162392 -76.1106 -14.6911 101.206 35.3486 -52.2146 6.91165 63.8094 -0.292438 -82.2689 14.3227 -2.72324 -22.1772 13.0277 9.73487 5.51943 -15.6733 7.34056 6.78619 
59.2641 87.6903 36.2378 -110.389 -84.4424 -115.468 -178.338 32.0049 95.9829 -30.0029 12.3291 3.75588 53.1602 -7.08599 -5.34097 28.7808 7.42236e-006 8.08035e-006 174.347 -1.99314 67.0253 -43.6429 58.0707 6.67084 59.532 22.5563 14.0282 28.7808 1.3476e-005 3.02633e-005 3.36994 5.28019 -94.2728 16.2079 4.35832 -5.71087 4.53084 4.1032 -5.89657 -18.0034 5.87165 -4.13881 2.00926 5.87166 -4.13882 89.5099 -27.8672 -108.602 7.83829 25.4614 -78.3757 -2.02301 -2.86086 -85.2107 -5.37983 -0.319993 -0.0162392 -75.2018 -15.4812 103.424 32.4498 -54.5599 11.7599 64.561 -3.91885 -85.1152 21.2864 -3.6021 -21.0366 10.3156 7.62113 9.45287 -16.3964 4.95883 2.88314 
60.7836 87.6543 37.5168 -99.2081 -86.5045 -103.601 -178.83 34.2824 95.1196 -32.6291 11.5412 3.97553 55.7555 -5.74377 -4.14528 28.7808 7.42236e-006 8.08035e-006 174.178 -2.61279 67.2739 -41.8804 57.873 6.54795 55.8056 21.8539 14.7002 28.7808 1.3476e-005 3.02633e-005 3.5376 5.39911 -93.7796 16.0053 4.88341 -5.37975 4.33156 4.64228 -5.589 -18.2295 6.27313 -3.66343 1.78315 6.27313 -3.66343 89.5578 -27.8246 -108.523 10.1594 25.7475 -75.6938 -2.08429 -2.79462 -88.8392 -5.37983 -0.319993 -0.0162392 -73.8098 -16.3408 106.75 25.5565 -54.7342 11.5942 66.2987 -5.83224 -86.5989 29.6137 -4.3222 -19.0501 8.3236 5.15404 9.57699 -17.4203 2.90141 1.06744 
62.2718 87.2746 38.2891 -71.4529 -87.7955 -75.2421 -179.464 37.2181 94.3139 -36.2392 11.1245 4.3649 57.7202 -4.65789 -3.26498 28.7808 7.42236e-006 8.08035e-006 174.373 -2.53303 67.4868 -41.2615 58.321 6.48795 53.476 21.5038 15.1875 28.7808 1.3476e-005 3.02633e-005 3.73268 5.67557 -93.2362 15.4985 5.49911 -5.06609 3.82842 5.27113 -5.30294 -18.7632 6.76612 -3.17694 1.24948 6.76614 -3.17695 89.5622 -27.4681 -108.665 14.1298 25.3446 -73.9538 -1.7187 -3.70627 -90.8993 -5.37983 -0.319993 -0.0162392 -72.3416 -18.4062 109.868 15.552 -52.2567 9.6519 65.1978 -7.08716 -87.8936 35.2476 -4.96789 -18.6201 8.64831 3.14738 10.9071 -18.5786 1.04934 -2.09665 
63.6927 86.5892 38.5981 -45.9736 -87.8682 -49.1046 179.904 40.1514 93.8599 -40.292 10.1226 4.69303 59.0837 -3.57145 -2.48083 28.7808 7.42236e-006 8.08035e-006 174.674 -2.07128 67.4483 -41.2317 57.8283 6.15623 53.1251 21.315 15.1889 28.7808 1.3476e-005 3.02633e-005 3.90403 6.16461 -92.7689 14.564 6.06704 -4.75971 2.89751 5.85194 -5.02212 -19.7235 7.21564 -2.71152 0.28914 7.21564 -2.71153 88.7597 -27.7102 -110.197 16.0621 23.936 -71.1227 -1.80556 -2.94733 -94.7275 -5.37983 -0.319993 -0.0162392 -71.4027 -20.9062 111.453 4.74023 -49.1228 8.86751 64.8696 -6.29273 -87.4371 37.2462 -5.94037 -20.5039 10.5299 1.62975 13.1103 -19.0144 -0.429758 -6.85662 
